# xmcd
#
# Track frame offsets:
#	150
#	15312
#	31411
#	41835
#	54185
#	67641
#	75179
#	89692
#	98447
#	110811
#	128667
#	139983
#	150417
#	159470
#	172962
#	187297
#	198190
#	208411
#
# Disc length: 2989 seconds
#
# Revision: 0
# Processed by: cddbd v1.5.2PL0 Copyright (c) Steve Scherf et al.
# Submitted via: EasyCDDAExtractor 16.0.6.1
#
DISCID=e40bab12
DTITLE=Συλλογικός δίσκος - Τραγούδια και χοροί του τόπου μας-18 συρτά
DYEAR=2004
DGENRE=Παραδοσιακή
TTITLE0=Στίγκα Θεοδοσία - Δυό μαύρα μάτια αγαπώ [παραδοσιακό]
TTITLE1=Φραγκούλη Κική - Ο δυόσμος κι ο βασιλικός [παραδοσιακό]
TTITLE2=Φραγκούλη Κική - Κέρνα μας μαυρομάτα μου [παραδοσιακό]
TTITLE3=Μεντζελόπουλος Κώστας - Ο ήλιος βασιλεύει [παραδοσιακό]
TTITLE4=Βέρρα Ευγενία - Πάρε Μαριώ τη ρόκα σου [παραδοσιακό]
TTITLE5=Βέρρα Ευγενία - Ένα πουλί μαντζουράνα μου [παραδοσιακό]
TTITLE6=Σακάλης Δημήτρης - Η Μαλάμω [παραδοσιακό]
TTITLE7=Φραγκούλη Κική - Στη βρύση στην κρυόβρυση [παραδοσιακό]
TTITLE8=Φραγκούλη Κική - Το κλήμα πό' 'χεις στην αυλή [παραδοσιακό]
TTITLE9=Βέρρα Ευγενία - Αυτά τα μάτια τα γλυκά [παραδοσιακό]
TTITLE10=Βέρρα Ευγενία - Η Σταυρούλα [παραδοσιακό]
TTITLE11=Φραγκούλη Κική - Νά 'χα νεράντζι [παραδοσιακό]
TTITLE12=Φραγκούλη Κική - Σουλιμιώτισσα [παραδοσιακό]
TTITLE13=Φραγκούλη Κική - Στην κεντημένη σου ποδιά [παραδοσιακό]
TTITLE14=Βέρρα Ευγενία - Τα γιούργια [παραδοσιακό]
TTITLE15=Βέρρα Ευγενία - Τσούπρα μου το μαντήλι σου [παραδοσιακό]
TTITLE16=Φραγκούλη Κική - Μη με δέρνεις μάνα [παραδοσιακό]
TTITLE17=Φραγκούλη Κική - Πέρα στον πέρα μαχαλά [παραδοσιακό]
EXTD=
EXTT0=
EXTT1=
EXTT2=
EXTT3=
EXTT4=
EXTT5=
EXTT6=
EXTT7=
EXTT8=
EXTT9=
EXTT10=
EXTT11=
EXTT12=
EXTT13=
EXTT14=
EXTT15=
EXTT16=
EXTT17=
PLAYORDER=
